<mxfile host="app.diagrams.net" modified="2022-09-08T06:00:33.846Z" agent="5.0 (X11; Linux x86_64) AppleWebKit/537.36 (KHTML, like Gecko) Chrome/105.0.0.0 Safari/537.36" etag="VW7aUNvWhqpIphsuDTht" version="20.3.0" type="github">
  <diagram id="xkjTXLqBRyzLdOJY61nv" name="Page-1">
    <mxGraphModel dx="1422" dy="800" grid="1" gridSize="10" guides="1" tooltips="1" connect="1" arrows="1" fold="1" page="1" pageScale="1" pageWidth="827" pageHeight="1169" math="0" shadow="0">
      <root>
        <mxCell id="0" />
        <mxCell id="1" parent="0" />
        <mxCell id="REoKJ1GLLcJrXQ940Spe-11" style="edgeStyle=orthogonalEdgeStyle;rounded=0;orthogonalLoop=1;jettySize=auto;html=1;exitX=0.5;exitY=1;exitDx=0;exitDy=0;entryX=0.444;entryY=0;entryDx=0;entryDy=0;entryPerimeter=0;" edge="1" parent="1" source="REoKJ1GLLcJrXQ940Spe-1" target="REoKJ1GLLcJrXQ940Spe-4">
          <mxGeometry relative="1" as="geometry" />
        </mxCell>
        <mxCell id="REoKJ1GLLcJrXQ940Spe-12" style="edgeStyle=orthogonalEdgeStyle;rounded=0;orthogonalLoop=1;jettySize=auto;html=1;entryX=0.024;entryY=0.6;entryDx=0;entryDy=0;entryPerimeter=0;" edge="1" parent="1" source="REoKJ1GLLcJrXQ940Spe-1" target="REoKJ1GLLcJrXQ940Spe-2">
          <mxGeometry relative="1" as="geometry">
            <Array as="points">
              <mxPoint x="514" y="210" />
            </Array>
          </mxGeometry>
        </mxCell>
        <mxCell id="REoKJ1GLLcJrXQ940Spe-1" value="Actual Price&lt;br&gt;$100" style="rounded=0;whiteSpace=wrap;html=1;" vertex="1" parent="1">
          <mxGeometry x="150" y="180" width="120" height="60" as="geometry" />
        </mxCell>
        <mxCell id="REoKJ1GLLcJrXQ940Spe-10" style="edgeStyle=orthogonalEdgeStyle;rounded=0;orthogonalLoop=1;jettySize=auto;html=1;entryX=0.5;entryY=0;entryDx=0;entryDy=0;" edge="1" parent="1" source="REoKJ1GLLcJrXQ940Spe-2" target="REoKJ1GLLcJrXQ940Spe-5">
          <mxGeometry relative="1" as="geometry" />
        </mxCell>
        <mxCell id="REoKJ1GLLcJrXQ940Spe-2" value="Enter Pramo Code" style="shape=parallelogram;perimeter=parallelogramPerimeter;whiteSpace=wrap;html=1;fixedSize=1;" vertex="1" parent="1">
          <mxGeometry x="510" y="170" width="170" height="60" as="geometry" />
        </mxCell>
        <mxCell id="REoKJ1GLLcJrXQ940Spe-14" style="edgeStyle=orthogonalEdgeStyle;rounded=0;orthogonalLoop=1;jettySize=auto;html=1;entryX=0.476;entryY=0.017;entryDx=0;entryDy=0;entryPerimeter=0;" edge="1" parent="1" source="REoKJ1GLLcJrXQ940Spe-4" target="REoKJ1GLLcJrXQ940Spe-13">
          <mxGeometry relative="1" as="geometry" />
        </mxCell>
        <mxCell id="REoKJ1GLLcJrXQ940Spe-4" value="Discount&amp;nbsp;&lt;br&gt;&lt;br&gt;10% (Discount no 1)&lt;br&gt;15%&amp;nbsp;(Discount no 2)&lt;br&gt;$xx (Discount no3)" style="rounded=0;whiteSpace=wrap;html=1;" vertex="1" parent="1">
          <mxGeometry x="130" y="350" width="180" height="90" as="geometry" />
        </mxCell>
        <mxCell id="REoKJ1GLLcJrXQ940Spe-9" style="edgeStyle=orthogonalEdgeStyle;rounded=0;orthogonalLoop=1;jettySize=auto;html=1;entryX=1;entryY=0.5;entryDx=0;entryDy=0;" edge="1" parent="1" source="REoKJ1GLLcJrXQ940Spe-5" target="REoKJ1GLLcJrXQ940Spe-4">
          <mxGeometry relative="1" as="geometry" />
        </mxCell>
        <mxCell id="REoKJ1GLLcJrXQ940Spe-5" value="Pamo code ABC -&amp;nbsp; (Discount no 1)&lt;br&gt;Pamo code XYZ -&amp;nbsp; (Discount no 2)&lt;br&gt;&lt;strike&gt;Pamo code ASD-&amp;nbsp; (Discount no3)&lt;/strike&gt;" style="rounded=0;whiteSpace=wrap;html=1;" vertex="1" parent="1">
          <mxGeometry x="495" y="337.5" width="200" height="115" as="geometry" />
        </mxCell>
        <mxCell id="REoKJ1GLLcJrXQ940Spe-6" style="edgeStyle=orthogonalEdgeStyle;rounded=0;orthogonalLoop=1;jettySize=auto;html=1;exitX=0.5;exitY=1;exitDx=0;exitDy=0;" edge="1" parent="1" source="REoKJ1GLLcJrXQ940Spe-5" target="REoKJ1GLLcJrXQ940Spe-5">
          <mxGeometry relative="1" as="geometry" />
        </mxCell>
        <mxCell id="REoKJ1GLLcJrXQ940Spe-13" value="Actual Price - Discount" style="shape=process;whiteSpace=wrap;html=1;backgroundOutline=1;" vertex="1" parent="1">
          <mxGeometry x="100" y="525" width="250" height="60" as="geometry" />
        </mxCell>
      </root>
    </mxGraphModel>
  </diagram>
</mxfile>
